<mxfile host="Electron" modified="2024-06-25T03:14:44.163Z" agent="Mozilla/5.0 (Windows NT 10.0; Win64; x64) AppleWebKit/537.36 (KHTML, like Gecko) draw.io/24.5.1 Chrome/124.0.6367.207 Electron/30.0.6 Safari/537.36" etag="wdS12YwuhqV4MTDILTh_" version="24.5.1" type="device" pages="3">
  <diagram name="Entidades" id="xI30XM8JuwD7gmCvTsga">
    <mxGraphModel dx="2338" dy="794" grid="0" gridSize="10" guides="1" tooltips="1" connect="1" arrows="1" fold="1" page="1" pageScale="1" pageWidth="850" pageHeight="1100" math="0" shadow="0">
      <root>
        <mxCell id="0" />
        <mxCell id="1" parent="0" />
        <mxCell id="NaTjDUATOfl9J8VTjfPT-1" value="&lt;div style=&quot;text-align: center;&quot;&gt;&lt;span style=&quot;background-color: initial;&quot;&gt;Filme&lt;/span&gt;&lt;/div&gt;&lt;div style=&quot;&quot;&gt;&lt;span style=&quot;background-color: initial;&quot;&gt;idFilme&lt;/span&gt;&lt;/div&gt;&lt;div&gt;Titulo&lt;/div&gt;&lt;div&gt;Sinopse&lt;/div&gt;" style="rounded=0;whiteSpace=wrap;html=1;fontFamily=Architects Daughter;fontSource=https%3A%2F%2Ffonts.googleapis.com%2Fcss%3Ffamily%3DArchitects%2BDaughter;sketch=1;curveFitting=1;jiggle=2;fillStyle=auto;align=left;" vertex="1" parent="1">
          <mxGeometry x="-780" y="120" width="130" height="70" as="geometry" />
        </mxCell>
        <mxCell id="NaTjDUATOfl9J8VTjfPT-4" value="&lt;div style=&quot;text-align: right;&quot;&gt;Salas&lt;/div&gt;&lt;div style=&quot;&quot;&gt;IdSala&lt;/div&gt;&lt;div style=&quot;&quot;&gt;&lt;span style=&quot;background-color: initial;&quot;&gt;NomeSala&lt;/span&gt;&lt;/div&gt;&lt;div style=&quot;text-align: center;&quot;&gt;QtdeAssentos&lt;/div&gt;" style="rounded=0;whiteSpace=wrap;html=1;fontFamily=Architects Daughter;fontSource=https%3A%2F%2Ffonts.googleapis.com%2Fcss%3Ffamily%3DArchitects%2BDaughter;sketch=1;curveFitting=1;jiggle=2;fillStyle=auto;align=left;" vertex="1" parent="1">
          <mxGeometry x="-410" y="120" width="130" height="70" as="geometry" />
        </mxCell>
        <mxCell id="NaTjDUATOfl9J8VTjfPT-6" style="edgeStyle=none;curved=1;rounded=0;orthogonalLoop=1;jettySize=auto;html=1;entryX=0;entryY=0.5;entryDx=0;entryDy=0;fontFamily=Architects Daughter;fontSource=https%3A%2F%2Ffonts.googleapis.com%2Fcss%3Ffamily%3DArchitects%2BDaughter;fontSize=16;startSize=14;endArrow=open;endSize=14;sourcePerimeterSpacing=8;targetPerimeterSpacing=8;" edge="1" parent="1" source="NaTjDUATOfl9J8VTjfPT-5" target="NaTjDUATOfl9J8VTjfPT-4">
          <mxGeometry relative="1" as="geometry" />
        </mxCell>
        <mxCell id="NaTjDUATOfl9J8VTjfPT-7" style="edgeStyle=none;curved=1;rounded=0;orthogonalLoop=1;jettySize=auto;html=1;entryX=1;entryY=0.5;entryDx=0;entryDy=0;fontFamily=Architects Daughter;fontSource=https%3A%2F%2Ffonts.googleapis.com%2Fcss%3Ffamily%3DArchitects%2BDaughter;fontSize=16;startSize=14;endArrow=open;endSize=14;sourcePerimeterSpacing=8;targetPerimeterSpacing=8;" edge="1" parent="1" source="NaTjDUATOfl9J8VTjfPT-5" target="NaTjDUATOfl9J8VTjfPT-1">
          <mxGeometry relative="1" as="geometry" />
        </mxCell>
        <mxCell id="NaTjDUATOfl9J8VTjfPT-9" style="edgeStyle=none;curved=1;rounded=0;orthogonalLoop=1;jettySize=auto;html=1;entryX=0;entryY=0.5;entryDx=0;entryDy=0;fontFamily=Architects Daughter;fontSource=https%3A%2F%2Ffonts.googleapis.com%2Fcss%3Ffamily%3DArchitects%2BDaughter;fontSize=16;startSize=14;endArrow=open;endSize=14;sourcePerimeterSpacing=8;targetPerimeterSpacing=8;" edge="1" parent="1" source="NaTjDUATOfl9J8VTjfPT-5" target="NaTjDUATOfl9J8VTjfPT-8">
          <mxGeometry relative="1" as="geometry" />
        </mxCell>
        <mxCell id="NaTjDUATOfl9J8VTjfPT-5" value="&lt;div style=&quot;text-align: center;&quot;&gt;&lt;span style=&quot;background-color: initial;&quot;&gt;AgendamentoSala&lt;/span&gt;&lt;/div&gt;&lt;div style=&quot;&quot;&gt;&lt;span style=&quot;background-color: initial;&quot;&gt;idAgenda,mento&lt;/span&gt;&lt;/div&gt;&lt;div&gt;idSala&lt;/div&gt;&lt;div&gt;idFilme&lt;/div&gt;&lt;div&gt;&lt;span style=&quot;text-align: center;&quot;&gt;idPrecificacao&lt;/span&gt;&lt;br&gt;&lt;/div&gt;&lt;div&gt;Data&lt;/div&gt;&lt;div&gt;Hora&lt;/div&gt;" style="rounded=0;whiteSpace=wrap;html=1;fontFamily=Architects Daughter;fontSource=https%3A%2F%2Ffonts.googleapis.com%2Fcss%3Ffamily%3DArchitects%2BDaughter;sketch=1;curveFitting=1;jiggle=2;fillStyle=auto;align=left;" vertex="1" parent="1">
          <mxGeometry x="-610" y="240" width="170" height="140" as="geometry" />
        </mxCell>
        <mxCell id="NaTjDUATOfl9J8VTjfPT-8" value="&lt;div style=&quot;text-align: center;&quot;&gt;&lt;span style=&quot;background-color: initial;&quot;&gt;PrecificacaoHorario&lt;/span&gt;&lt;/div&gt;&lt;div style=&quot;&quot;&gt;&lt;span style=&quot;background-color: initial;&quot;&gt;idPrecificacao&lt;/span&gt;&lt;/div&gt;&lt;div style=&quot;&quot;&gt;&lt;span style=&quot;background-color: initial;&quot;&gt;dia&lt;/span&gt;&lt;/div&gt;&lt;div style=&quot;&quot;&gt;&lt;span style=&quot;background-color: initial;&quot;&gt;matine&lt;/span&gt;&lt;/div&gt;&lt;div style=&quot;&quot;&gt;&lt;span style=&quot;background-color: initial;&quot;&gt;noite&lt;/span&gt;&lt;/div&gt;&lt;div style=&quot;&quot;&gt;&lt;span style=&quot;background-color: initial;&quot;&gt;Valor&lt;/span&gt;&lt;/div&gt;&lt;div style=&quot;&quot;&gt;&lt;span style=&quot;background-color: initial;&quot;&gt;&lt;br&gt;&lt;/span&gt;&lt;/div&gt;" style="rounded=0;whiteSpace=wrap;html=1;fontFamily=Architects Daughter;fontSource=https%3A%2F%2Ffonts.googleapis.com%2Fcss%3Ffamily%3DArchitects%2BDaughter;sketch=1;curveFitting=1;jiggle=2;fillStyle=auto;align=left;" vertex="1" parent="1">
          <mxGeometry x="-370" y="230" width="230" height="110" as="geometry" />
        </mxCell>
        <mxCell id="NaTjDUATOfl9J8VTjfPT-10" value="&lt;div style=&quot;text-align: center;&quot;&gt;&lt;span style=&quot;background-color: initial;&quot;&gt;Cliente&lt;/span&gt;&lt;/div&gt;&lt;div style=&quot;&quot;&gt;&lt;span style=&quot;background-color: initial;&quot;&gt;idCliente&lt;/span&gt;&lt;/div&gt;&lt;div&gt;Nome&lt;/div&gt;&lt;div&gt;DataNascimento&lt;/div&gt;&lt;div&gt;&lt;br&gt;&lt;/div&gt;" style="rounded=0;whiteSpace=wrap;html=1;fontFamily=Architects Daughter;fontSource=https%3A%2F%2Ffonts.googleapis.com%2Fcss%3Ffamily%3DArchitects%2BDaughter;sketch=1;curveFitting=1;jiggle=2;fillStyle=auto;align=left;gradientColor=none;" vertex="1" parent="1">
          <mxGeometry x="-770" y="470" width="150" height="80" as="geometry" />
        </mxCell>
        <mxCell id="NaTjDUATOfl9J8VTjfPT-14" style="edgeStyle=none;curved=1;rounded=0;orthogonalLoop=1;jettySize=auto;html=1;fontFamily=Architects Daughter;fontSource=https%3A%2F%2Ffonts.googleapis.com%2Fcss%3Ffamily%3DArchitects%2BDaughter;fontSize=16;startSize=14;endArrow=open;endSize=14;sourcePerimeterSpacing=8;targetPerimeterSpacing=8;" edge="1" parent="1" source="NaTjDUATOfl9J8VTjfPT-11" target="NaTjDUATOfl9J8VTjfPT-10">
          <mxGeometry relative="1" as="geometry" />
        </mxCell>
        <mxCell id="NaTjDUATOfl9J8VTjfPT-16" style="edgeStyle=none;curved=1;rounded=0;orthogonalLoop=1;jettySize=auto;html=1;entryX=0.75;entryY=1;entryDx=0;entryDy=0;fontFamily=Architects Daughter;fontSource=https%3A%2F%2Ffonts.googleapis.com%2Fcss%3Ffamily%3DArchitects%2BDaughter;fontSize=16;startSize=14;endArrow=open;endSize=14;sourcePerimeterSpacing=8;targetPerimeterSpacing=8;" edge="1" parent="1" source="NaTjDUATOfl9J8VTjfPT-11" target="NaTjDUATOfl9J8VTjfPT-5">
          <mxGeometry relative="1" as="geometry" />
        </mxCell>
        <mxCell id="NaTjDUATOfl9J8VTjfPT-18" style="edgeStyle=none;curved=1;rounded=0;orthogonalLoop=1;jettySize=auto;html=1;fontFamily=Architects Daughter;fontSource=https%3A%2F%2Ffonts.googleapis.com%2Fcss%3Ffamily%3DArchitects%2BDaughter;fontSize=16;startSize=14;endArrow=open;endSize=14;sourcePerimeterSpacing=8;targetPerimeterSpacing=8;" edge="1" parent="1" source="NaTjDUATOfl9J8VTjfPT-11" target="NaTjDUATOfl9J8VTjfPT-17">
          <mxGeometry relative="1" as="geometry" />
        </mxCell>
        <mxCell id="NaTjDUATOfl9J8VTjfPT-11" value="&lt;div style=&quot;text-align: right;&quot;&gt;&lt;span style=&quot;background-color: initial;&quot;&gt;Carrinho&lt;/span&gt;&lt;/div&gt;&lt;div style=&quot;&quot;&gt;&lt;span style=&quot;background-color: initial;&quot;&gt;idCarrinho&lt;/span&gt;&lt;/div&gt;&lt;div&gt;idCliente&lt;/div&gt;&lt;div&gt;idAgendamento&lt;/div&gt;&lt;div&gt;StatusCarrinho&lt;/div&gt;&lt;div&gt;&lt;br&gt;&lt;/div&gt;" style="rounded=0;whiteSpace=wrap;html=1;fontFamily=Architects Daughter;fontSource=https%3A%2F%2Ffonts.googleapis.com%2Fcss%3Ffamily%3DArchitects%2BDaughter;sketch=1;curveFitting=1;jiggle=2;fillStyle=auto;align=left;" vertex="1" parent="1">
          <mxGeometry x="-560" y="470" width="130" height="90" as="geometry" />
        </mxCell>
        <mxCell id="NaTjDUATOfl9J8VTjfPT-12" value="&lt;div style=&quot;&quot;&gt;&lt;span style=&quot;background-color: initial;&quot;&gt;Ingresso&lt;/span&gt;&lt;/div&gt;&lt;div style=&quot;&quot;&gt;&lt;span style=&quot;background-color: initial;&quot;&gt;idIngresso&lt;/span&gt;&lt;/div&gt;&lt;div style=&quot;&quot;&gt;&lt;span style=&quot;background-color: initial;&quot;&gt;idCarrinho&lt;/span&gt;&lt;/div&gt;&lt;div&gt;&lt;br&gt;&lt;/div&gt;&lt;div&gt;&lt;br&gt;&lt;/div&gt;" style="rounded=0;whiteSpace=wrap;html=1;fontFamily=Architects Daughter;fontSource=https%3A%2F%2Ffonts.googleapis.com%2Fcss%3Ffamily%3DArchitects%2BDaughter;sketch=1;curveFitting=1;jiggle=2;fillStyle=auto;align=left;" vertex="1" parent="1">
          <mxGeometry x="-360" y="470" width="170" height="90" as="geometry" />
        </mxCell>
        <mxCell id="NaTjDUATOfl9J8VTjfPT-13" style="edgeStyle=none;curved=1;rounded=0;orthogonalLoop=1;jettySize=auto;html=1;entryX=1.015;entryY=0.582;entryDx=0;entryDy=0;entryPerimeter=0;fontFamily=Architects Daughter;fontSource=https%3A%2F%2Ffonts.googleapis.com%2Fcss%3Ffamily%3DArchitects%2BDaughter;fontSize=16;startSize=14;endArrow=open;endSize=14;sourcePerimeterSpacing=8;targetPerimeterSpacing=8;" edge="1" parent="1" source="NaTjDUATOfl9J8VTjfPT-12" target="NaTjDUATOfl9J8VTjfPT-11">
          <mxGeometry relative="1" as="geometry" />
        </mxCell>
        <mxCell id="NaTjDUATOfl9J8VTjfPT-17" value="&lt;div style=&quot;text-align: center;&quot;&gt;&lt;span style=&quot;background-color: initial;&quot;&gt;StatusCarrinho&lt;/span&gt;&lt;/div&gt;&lt;div style=&quot;&quot;&gt;IdStatusCarrinho&lt;/div&gt;&lt;div style=&quot;&quot;&gt;NomeStatus&amp;nbsp;&lt;/div&gt;&lt;div style=&quot;&quot;&gt;&lt;br&gt;&lt;/div&gt;&lt;div style=&quot;&quot;&gt;Aberto, ReservaSolicitada, ReservaEmProcessamento, ReservaRealizada, PagamentoPendente, PagamentoConluido, CarrinhoFechado, CarrinhoCancelado&lt;/div&gt;&lt;div&gt;&lt;br&gt;&lt;/div&gt;" style="rounded=0;whiteSpace=wrap;html=1;fontFamily=Architects Daughter;fontSource=https%3A%2F%2Ffonts.googleapis.com%2Fcss%3Ffamily%3DArchitects%2BDaughter;sketch=1;curveFitting=1;jiggle=2;fillStyle=auto;align=left;" vertex="1" parent="1">
          <mxGeometry x="-740" y="620" width="450" height="140" as="geometry" />
        </mxCell>
      </root>
    </mxGraphModel>
  </diagram>
  <diagram id="VGmzCLTdCHy8kEBnWv1X" name="Dominios">
    <mxGraphModel dx="6802" dy="4276" grid="0" gridSize="10" guides="1" tooltips="1" connect="1" arrows="1" fold="1" page="1" pageScale="1" pageWidth="850" pageHeight="1100" background="none" math="0" shadow="0">
      <root>
        <mxCell id="0" />
        <mxCell id="1" parent="0" />
        <mxCell id="od6I9YLTL-0dWbk3YG-f-4" value="" style="edgeStyle=none;curved=1;rounded=0;sketch=1;hachureGap=4;jiggle=2;curveFitting=1;orthogonalLoop=1;jettySize=auto;html=1;fontFamily=Architects Daughter;fontSource=https%3A%2F%2Ffonts.googleapis.com%2Fcss%3Ffamily%3DArchitects%2BDaughter;fontSize=16;startSize=14;endArrow=open;endSize=14;sourcePerimeterSpacing=8;targetPerimeterSpacing=8;" edge="1" parent="1" source="od6I9YLTL-0dWbk3YG-f-2" target="od6I9YLTL-0dWbk3YG-f-3">
          <mxGeometry relative="1" as="geometry" />
        </mxCell>
        <mxCell id="od6I9YLTL-0dWbk3YG-f-5" style="edgeStyle=none;curved=1;rounded=0;sketch=1;hachureGap=4;jiggle=2;curveFitting=1;orthogonalLoop=1;jettySize=auto;html=1;fontFamily=Architects Daughter;fontSource=https%3A%2F%2Ffonts.googleapis.com%2Fcss%3Ffamily%3DArchitects%2BDaughter;fontSize=16;startSize=14;endArrow=open;endSize=14;sourcePerimeterSpacing=8;targetPerimeterSpacing=8;entryX=0;entryY=0.5;entryDx=0;entryDy=0;" edge="1" parent="1" source="od6I9YLTL-0dWbk3YG-f-2" target="od6I9YLTL-0dWbk3YG-f-6">
          <mxGeometry relative="1" as="geometry">
            <mxPoint x="512.1429268973216" y="597.8571515764511" as="targetPoint" />
          </mxGeometry>
        </mxCell>
        <mxCell id="od6I9YLTL-0dWbk3YG-f-7" value="" style="edgeStyle=none;curved=1;rounded=0;sketch=1;hachureGap=4;jiggle=2;curveFitting=1;orthogonalLoop=1;jettySize=auto;html=1;fontFamily=Architects Daughter;fontSource=https%3A%2F%2Ffonts.googleapis.com%2Fcss%3Ffamily%3DArchitects%2BDaughter;fontSize=16;startSize=14;endArrow=open;endSize=14;sourcePerimeterSpacing=8;targetPerimeterSpacing=8;" edge="1" parent="1" source="od6I9YLTL-0dWbk3YG-f-2" target="od6I9YLTL-0dWbk3YG-f-3">
          <mxGeometry relative="1" as="geometry" />
        </mxCell>
        <mxCell id="od6I9YLTL-0dWbk3YG-f-8" value="" style="edgeStyle=none;curved=1;rounded=0;sketch=1;hachureGap=4;jiggle=2;curveFitting=1;orthogonalLoop=1;jettySize=auto;html=1;fontFamily=Architects Daughter;fontSource=https%3A%2F%2Ffonts.googleapis.com%2Fcss%3Ffamily%3DArchitects%2BDaughter;fontSize=16;startSize=14;endArrow=open;endSize=14;sourcePerimeterSpacing=8;targetPerimeterSpacing=8;" edge="1" parent="1" source="od6I9YLTL-0dWbk3YG-f-2" target="od6I9YLTL-0dWbk3YG-f-3">
          <mxGeometry relative="1" as="geometry" />
        </mxCell>
        <mxCell id="od6I9YLTL-0dWbk3YG-f-10" style="edgeStyle=none;curved=1;rounded=0;sketch=1;hachureGap=4;jiggle=2;curveFitting=1;orthogonalLoop=1;jettySize=auto;html=1;fontFamily=Architects Daughter;fontSource=https%3A%2F%2Ffonts.googleapis.com%2Fcss%3Ffamily%3DArchitects%2BDaughter;fontSize=16;startSize=14;endArrow=open;endSize=14;sourcePerimeterSpacing=8;targetPerimeterSpacing=8;" edge="1" parent="1" source="od6I9YLTL-0dWbk3YG-f-2" target="od6I9YLTL-0dWbk3YG-f-9">
          <mxGeometry relative="1" as="geometry" />
        </mxCell>
        <mxCell id="od6I9YLTL-0dWbk3YG-f-11" style="edgeStyle=none;curved=1;rounded=0;sketch=1;hachureGap=4;jiggle=2;curveFitting=1;orthogonalLoop=1;jettySize=auto;html=1;fontFamily=Architects Daughter;fontSource=https%3A%2F%2Ffonts.googleapis.com%2Fcss%3Ffamily%3DArchitects%2BDaughter;fontSize=16;startSize=14;endArrow=open;endSize=14;sourcePerimeterSpacing=8;targetPerimeterSpacing=8;" edge="1" parent="1" source="od6I9YLTL-0dWbk3YG-f-2">
          <mxGeometry relative="1" as="geometry">
            <mxPoint x="219" y="834.6666666666667" as="targetPoint" />
          </mxGeometry>
        </mxCell>
        <mxCell id="od6I9YLTL-0dWbk3YG-f-2" value="Carrinho" style="rounded=0;whiteSpace=wrap;html=1;hachureGap=4;fontFamily=Verdana;sketch=1;curveFitting=1;jiggle=2;fillColor=#e1d5e7;strokeColor=#9673a6;fontColor=#FFFFFF;fontStyle=1;fontSize=22;" vertex="1" parent="1">
          <mxGeometry x="97" y="370" width="244" height="127" as="geometry" />
        </mxCell>
        <mxCell id="od6I9YLTL-0dWbk3YG-f-3" value="CriarCarrinho" style="rounded=0;whiteSpace=wrap;html=1;hachureGap=4;fontFamily=Verdana;sketch=1;curveFitting=1;jiggle=2;fillColor=#e1d5e7;strokeColor=#9673a6;fontColor=#FFFFFF;fontStyle=1;fontSize=22;" vertex="1" parent="1">
          <mxGeometry x="432" y="319" width="244" height="127" as="geometry" />
        </mxCell>
        <mxCell id="od6I9YLTL-0dWbk3YG-f-6" value="AddItemCarrinho" style="rounded=0;whiteSpace=wrap;html=1;hachureGap=4;fontFamily=Verdana;sketch=1;curveFitting=1;jiggle=2;fillColor=#e1d5e7;strokeColor=#9673a6;fontColor=#FFFFFF;fontStyle=1;fontSize=22;" vertex="1" parent="1">
          <mxGeometry x="440" y="465" width="335" height="139" as="geometry" />
        </mxCell>
        <mxCell id="od6I9YLTL-0dWbk3YG-f-9" value="RemoverItemCarrinho" style="rounded=0;whiteSpace=wrap;html=1;hachureGap=4;fontFamily=Verdana;sketch=1;curveFitting=1;jiggle=2;fillColor=#e1d5e7;strokeColor=#9673a6;fontColor=#FFFFFF;fontStyle=1;fontSize=22;" vertex="1" parent="1">
          <mxGeometry x="300" y="634" width="335" height="139" as="geometry" />
        </mxCell>
        <mxCell id="od6I9YLTL-0dWbk3YG-f-12" value="AtualizarStatusCarrinho" style="rounded=0;whiteSpace=wrap;html=1;hachureGap=4;fontFamily=Verdana;sketch=1;curveFitting=1;jiggle=2;fillColor=#e1d5e7;strokeColor=#9673a6;fontColor=#FFFFFF;fontStyle=1;fontSize=22;" vertex="1" parent="1">
          <mxGeometry x="99" y="835" width="335" height="139" as="geometry" />
        </mxCell>
        <mxCell id="od6I9YLTL-0dWbk3YG-f-24" value="" style="edgeStyle=none;curved=1;rounded=0;sketch=1;hachureGap=4;jiggle=2;curveFitting=1;orthogonalLoop=1;jettySize=auto;html=1;fontFamily=Architects Daughter;fontSource=https%3A%2F%2Ffonts.googleapis.com%2Fcss%3Ffamily%3DArchitects%2BDaughter;fontSize=16;startSize=14;endArrow=open;endSize=14;sourcePerimeterSpacing=8;targetPerimeterSpacing=8;" edge="1" parent="1" source="od6I9YLTL-0dWbk3YG-f-30" target="od6I9YLTL-0dWbk3YG-f-31">
          <mxGeometry relative="1" as="geometry" />
        </mxCell>
        <mxCell id="od6I9YLTL-0dWbk3YG-f-26" value="" style="edgeStyle=none;curved=1;rounded=0;sketch=1;hachureGap=4;jiggle=2;curveFitting=1;orthogonalLoop=1;jettySize=auto;html=1;fontFamily=Architects Daughter;fontSource=https%3A%2F%2Ffonts.googleapis.com%2Fcss%3Ffamily%3DArchitects%2BDaughter;fontSize=16;startSize=14;endArrow=open;endSize=14;sourcePerimeterSpacing=8;targetPerimeterSpacing=8;" edge="1" parent="1" source="od6I9YLTL-0dWbk3YG-f-30" target="od6I9YLTL-0dWbk3YG-f-31">
          <mxGeometry relative="1" as="geometry" />
        </mxCell>
        <mxCell id="od6I9YLTL-0dWbk3YG-f-27" value="" style="edgeStyle=none;curved=1;rounded=0;sketch=1;hachureGap=4;jiggle=2;curveFitting=1;orthogonalLoop=1;jettySize=auto;html=1;fontFamily=Architects Daughter;fontSource=https%3A%2F%2Ffonts.googleapis.com%2Fcss%3Ffamily%3DArchitects%2BDaughter;fontSize=16;startSize=14;endArrow=open;endSize=14;sourcePerimeterSpacing=8;targetPerimeterSpacing=8;" edge="1" parent="1" source="od6I9YLTL-0dWbk3YG-f-30" target="od6I9YLTL-0dWbk3YG-f-31">
          <mxGeometry relative="1" as="geometry" />
        </mxCell>
        <mxCell id="od6I9YLTL-0dWbk3YG-f-29" style="edgeStyle=none;curved=1;rounded=0;sketch=1;hachureGap=4;jiggle=2;curveFitting=1;orthogonalLoop=1;jettySize=auto;html=1;fontFamily=Architects Daughter;fontSource=https%3A%2F%2Ffonts.googleapis.com%2Fcss%3Ffamily%3DArchitects%2BDaughter;fontSize=16;startSize=14;endArrow=open;endSize=14;sourcePerimeterSpacing=8;targetPerimeterSpacing=8;entryX=0.372;entryY=-0.02;entryDx=0;entryDy=0;entryPerimeter=0;" edge="1" parent="1" source="od6I9YLTL-0dWbk3YG-f-30" target="od6I9YLTL-0dWbk3YG-f-34">
          <mxGeometry relative="1" as="geometry">
            <mxPoint x="-644" y="-464.33333333333326" as="targetPoint" />
          </mxGeometry>
        </mxCell>
        <mxCell id="od6I9YLTL-0dWbk3YG-f-30" value="Filme" style="rounded=0;whiteSpace=wrap;html=1;hachureGap=4;fontFamily=Verdana;sketch=1;curveFitting=1;jiggle=2;fillColor=#e1d5e7;strokeColor=#9673a6;fontColor=#FFFFFF;fontStyle=1;fontSize=22;" vertex="1" parent="1">
          <mxGeometry x="-766" y="-929" width="244" height="127" as="geometry" />
        </mxCell>
        <mxCell id="od6I9YLTL-0dWbk3YG-f-31" value="IncluirFilmes" style="rounded=0;whiteSpace=wrap;html=1;hachureGap=4;fontFamily=Verdana;sketch=1;curveFitting=1;jiggle=2;fillColor=#e1d5e7;strokeColor=#9673a6;fontColor=#FFFFFF;fontStyle=1;fontSize=22;" vertex="1" parent="1">
          <mxGeometry x="-431" y="-980" width="244" height="127" as="geometry" />
        </mxCell>
        <mxCell id="od6I9YLTL-0dWbk3YG-f-34" value="AtualizarStatusCarrinho" style="rounded=0;whiteSpace=wrap;html=1;hachureGap=4;fontFamily=Verdana;sketch=1;curveFitting=1;jiggle=2;fillColor=#e1d5e7;strokeColor=#9673a6;fontColor=#FFFFFF;fontStyle=1;fontSize=22;" vertex="1" parent="1">
          <mxGeometry x="-665" y="-707" width="335" height="139" as="geometry" />
        </mxCell>
        <mxCell id="od6I9YLTL-0dWbk3YG-f-35" value="" style="edgeStyle=none;curved=1;rounded=0;sketch=1;hachureGap=4;jiggle=2;curveFitting=1;orthogonalLoop=1;jettySize=auto;html=1;fontFamily=Architects Daughter;fontSource=https%3A%2F%2Ffonts.googleapis.com%2Fcss%3Ffamily%3DArchitects%2BDaughter;fontSize=16;startSize=14;endArrow=open;endSize=14;sourcePerimeterSpacing=8;targetPerimeterSpacing=8;" edge="1" parent="1" source="od6I9YLTL-0dWbk3YG-f-39" target="od6I9YLTL-0dWbk3YG-f-40">
          <mxGeometry relative="1" as="geometry" />
        </mxCell>
        <mxCell id="od6I9YLTL-0dWbk3YG-f-36" value="" style="edgeStyle=none;curved=1;rounded=0;sketch=1;hachureGap=4;jiggle=2;curveFitting=1;orthogonalLoop=1;jettySize=auto;html=1;fontFamily=Architects Daughter;fontSource=https%3A%2F%2Ffonts.googleapis.com%2Fcss%3Ffamily%3DArchitects%2BDaughter;fontSize=16;startSize=14;endArrow=open;endSize=14;sourcePerimeterSpacing=8;targetPerimeterSpacing=8;" edge="1" parent="1" source="od6I9YLTL-0dWbk3YG-f-39" target="od6I9YLTL-0dWbk3YG-f-40">
          <mxGeometry relative="1" as="geometry" />
        </mxCell>
        <mxCell id="od6I9YLTL-0dWbk3YG-f-37" value="" style="edgeStyle=none;curved=1;rounded=0;sketch=1;hachureGap=4;jiggle=2;curveFitting=1;orthogonalLoop=1;jettySize=auto;html=1;fontFamily=Architects Daughter;fontSource=https%3A%2F%2Ffonts.googleapis.com%2Fcss%3Ffamily%3DArchitects%2BDaughter;fontSize=16;startSize=14;endArrow=open;endSize=14;sourcePerimeterSpacing=8;targetPerimeterSpacing=8;" edge="1" parent="1" source="od6I9YLTL-0dWbk3YG-f-39" target="od6I9YLTL-0dWbk3YG-f-40">
          <mxGeometry relative="1" as="geometry" />
        </mxCell>
        <mxCell id="od6I9YLTL-0dWbk3YG-f-38" style="edgeStyle=none;curved=1;rounded=0;sketch=1;hachureGap=4;jiggle=2;curveFitting=1;orthogonalLoop=1;jettySize=auto;html=1;fontFamily=Architects Daughter;fontSource=https%3A%2F%2Ffonts.googleapis.com%2Fcss%3Ffamily%3DArchitects%2BDaughter;fontSize=16;startSize=14;endArrow=open;endSize=14;sourcePerimeterSpacing=8;targetPerimeterSpacing=8;entryX=0.372;entryY=-0.02;entryDx=0;entryDy=0;entryPerimeter=0;" edge="1" parent="1" source="od6I9YLTL-0dWbk3YG-f-39" target="od6I9YLTL-0dWbk3YG-f-41">
          <mxGeometry relative="1" as="geometry">
            <mxPoint x="314" y="-477.33333333333326" as="targetPoint" />
          </mxGeometry>
        </mxCell>
        <mxCell id="od6I9YLTL-0dWbk3YG-f-39" value="Sala" style="rounded=0;whiteSpace=wrap;html=1;hachureGap=4;fontFamily=Verdana;sketch=1;curveFitting=1;jiggle=2;fillColor=#e1d5e7;strokeColor=#9673a6;fontColor=#FFFFFF;fontStyle=1;fontSize=22;" vertex="1" parent="1">
          <mxGeometry x="192" y="-942" width="244" height="127" as="geometry" />
        </mxCell>
        <mxCell id="od6I9YLTL-0dWbk3YG-f-40" value="IncluirSala" style="rounded=0;whiteSpace=wrap;html=1;hachureGap=4;fontFamily=Verdana;sketch=1;curveFitting=1;jiggle=2;fillColor=#e1d5e7;strokeColor=#9673a6;fontColor=#FFFFFF;fontStyle=1;fontSize=22;" vertex="1" parent="1">
          <mxGeometry x="527" y="-993" width="244" height="127" as="geometry" />
        </mxCell>
        <mxCell id="od6I9YLTL-0dWbk3YG-f-41" value="AtualizarSala" style="rounded=0;whiteSpace=wrap;html=1;hachureGap=4;fontFamily=Verdana;sketch=1;curveFitting=1;jiggle=2;fillColor=#e1d5e7;strokeColor=#9673a6;fontColor=#FFFFFF;fontStyle=1;fontSize=22;" vertex="1" parent="1">
          <mxGeometry x="293" y="-720" width="335" height="139" as="geometry" />
        </mxCell>
        <mxCell id="RgA5Imkx3qrKo5mvGBN7-1" value="" style="edgeStyle=none;curved=1;rounded=0;sketch=1;hachureGap=4;jiggle=2;curveFitting=1;orthogonalLoop=1;jettySize=auto;html=1;fontFamily=Architects Daughter;fontSource=https%3A%2F%2Ffonts.googleapis.com%2Fcss%3Ffamily%3DArchitects%2BDaughter;fontSize=16;startSize=14;endArrow=open;endSize=14;sourcePerimeterSpacing=8;targetPerimeterSpacing=8;" edge="1" parent="1" source="RgA5Imkx3qrKo5mvGBN7-5" target="RgA5Imkx3qrKo5mvGBN7-6">
          <mxGeometry relative="1" as="geometry" />
        </mxCell>
        <mxCell id="RgA5Imkx3qrKo5mvGBN7-2" value="" style="edgeStyle=none;curved=1;rounded=0;sketch=1;hachureGap=4;jiggle=2;curveFitting=1;orthogonalLoop=1;jettySize=auto;html=1;fontFamily=Architects Daughter;fontSource=https%3A%2F%2Ffonts.googleapis.com%2Fcss%3Ffamily%3DArchitects%2BDaughter;fontSize=16;startSize=14;endArrow=open;endSize=14;sourcePerimeterSpacing=8;targetPerimeterSpacing=8;" edge="1" parent="1" source="RgA5Imkx3qrKo5mvGBN7-5" target="RgA5Imkx3qrKo5mvGBN7-6">
          <mxGeometry relative="1" as="geometry" />
        </mxCell>
        <mxCell id="RgA5Imkx3qrKo5mvGBN7-3" value="" style="edgeStyle=none;curved=1;rounded=0;sketch=1;hachureGap=4;jiggle=2;curveFitting=1;orthogonalLoop=1;jettySize=auto;html=1;fontFamily=Architects Daughter;fontSource=https%3A%2F%2Ffonts.googleapis.com%2Fcss%3Ffamily%3DArchitects%2BDaughter;fontSize=16;startSize=14;endArrow=open;endSize=14;sourcePerimeterSpacing=8;targetPerimeterSpacing=8;" edge="1" parent="1" source="RgA5Imkx3qrKo5mvGBN7-5" target="RgA5Imkx3qrKo5mvGBN7-6">
          <mxGeometry relative="1" as="geometry" />
        </mxCell>
        <mxCell id="RgA5Imkx3qrKo5mvGBN7-4" style="edgeStyle=none;curved=1;rounded=0;sketch=1;hachureGap=4;jiggle=2;curveFitting=1;orthogonalLoop=1;jettySize=auto;html=1;fontFamily=Architects Daughter;fontSource=https%3A%2F%2Ffonts.googleapis.com%2Fcss%3Ffamily%3DArchitects%2BDaughter;fontSize=16;startSize=14;endArrow=open;endSize=14;sourcePerimeterSpacing=8;targetPerimeterSpacing=8;entryX=0.372;entryY=-0.02;entryDx=0;entryDy=0;entryPerimeter=0;" edge="1" parent="1" source="RgA5Imkx3qrKo5mvGBN7-5" target="RgA5Imkx3qrKo5mvGBN7-7">
          <mxGeometry relative="1" as="geometry">
            <mxPoint x="1094" y="-429.33333333333326" as="targetPoint" />
          </mxGeometry>
        </mxCell>
        <mxCell id="RgA5Imkx3qrKo5mvGBN7-5" value="Preços" style="rounded=0;whiteSpace=wrap;html=1;hachureGap=4;fontFamily=Verdana;sketch=1;curveFitting=1;jiggle=2;fillColor=#e1d5e7;strokeColor=#9673a6;fontColor=#FFFFFF;fontStyle=1;fontSize=22;" vertex="1" parent="1">
          <mxGeometry x="972" y="-894" width="244" height="127" as="geometry" />
        </mxCell>
        <mxCell id="RgA5Imkx3qrKo5mvGBN7-6" value="IncluirPreço" style="rounded=0;whiteSpace=wrap;html=1;hachureGap=4;fontFamily=Verdana;sketch=1;curveFitting=1;jiggle=2;fillColor=#e1d5e7;strokeColor=#9673a6;fontColor=#FFFFFF;fontStyle=1;fontSize=22;" vertex="1" parent="1">
          <mxGeometry x="1307" y="-945" width="244" height="127" as="geometry" />
        </mxCell>
        <mxCell id="RgA5Imkx3qrKo5mvGBN7-7" value="AtualizarPreço" style="rounded=0;whiteSpace=wrap;html=1;hachureGap=4;fontFamily=Verdana;sketch=1;curveFitting=1;jiggle=2;fillColor=#e1d5e7;strokeColor=#9673a6;fontColor=#FFFFFF;fontStyle=1;fontSize=22;" vertex="1" parent="1">
          <mxGeometry x="1073" y="-672" width="335" height="139" as="geometry" />
        </mxCell>
        <mxCell id="RgA5Imkx3qrKo5mvGBN7-8" value="" style="edgeStyle=none;curved=1;rounded=0;sketch=1;hachureGap=4;jiggle=2;curveFitting=1;orthogonalLoop=1;jettySize=auto;html=1;fontFamily=Architects Daughter;fontSource=https%3A%2F%2Ffonts.googleapis.com%2Fcss%3Ffamily%3DArchitects%2BDaughter;fontSize=16;startSize=14;endArrow=open;endSize=14;sourcePerimeterSpacing=8;targetPerimeterSpacing=8;" edge="1" parent="1" source="RgA5Imkx3qrKo5mvGBN7-12" target="RgA5Imkx3qrKo5mvGBN7-13">
          <mxGeometry relative="1" as="geometry" />
        </mxCell>
        <mxCell id="RgA5Imkx3qrKo5mvGBN7-9" value="" style="edgeStyle=none;curved=1;rounded=0;sketch=1;hachureGap=4;jiggle=2;curveFitting=1;orthogonalLoop=1;jettySize=auto;html=1;fontFamily=Architects Daughter;fontSource=https%3A%2F%2Ffonts.googleapis.com%2Fcss%3Ffamily%3DArchitects%2BDaughter;fontSize=16;startSize=14;endArrow=open;endSize=14;sourcePerimeterSpacing=8;targetPerimeterSpacing=8;" edge="1" parent="1" source="RgA5Imkx3qrKo5mvGBN7-12" target="RgA5Imkx3qrKo5mvGBN7-13">
          <mxGeometry relative="1" as="geometry" />
        </mxCell>
        <mxCell id="RgA5Imkx3qrKo5mvGBN7-10" value="" style="edgeStyle=none;curved=1;rounded=0;sketch=1;hachureGap=4;jiggle=2;curveFitting=1;orthogonalLoop=1;jettySize=auto;html=1;fontFamily=Architects Daughter;fontSource=https%3A%2F%2Ffonts.googleapis.com%2Fcss%3Ffamily%3DArchitects%2BDaughter;fontSize=16;startSize=14;endArrow=open;endSize=14;sourcePerimeterSpacing=8;targetPerimeterSpacing=8;" edge="1" parent="1" source="RgA5Imkx3qrKo5mvGBN7-12" target="RgA5Imkx3qrKo5mvGBN7-13">
          <mxGeometry relative="1" as="geometry" />
        </mxCell>
        <mxCell id="RgA5Imkx3qrKo5mvGBN7-11" style="edgeStyle=none;curved=1;rounded=0;sketch=1;hachureGap=4;jiggle=2;curveFitting=1;orthogonalLoop=1;jettySize=auto;html=1;fontFamily=Architects Daughter;fontSource=https%3A%2F%2Ffonts.googleapis.com%2Fcss%3Ffamily%3DArchitects%2BDaughter;fontSize=16;startSize=14;endArrow=open;endSize=14;sourcePerimeterSpacing=8;targetPerimeterSpacing=8;entryX=0.372;entryY=-0.02;entryDx=0;entryDy=0;entryPerimeter=0;" edge="1" parent="1" source="RgA5Imkx3qrKo5mvGBN7-12" target="RgA5Imkx3qrKo5mvGBN7-14">
          <mxGeometry relative="1" as="geometry">
            <mxPoint x="272" y="167.66666666666674" as="targetPoint" />
          </mxGeometry>
        </mxCell>
        <mxCell id="RgA5Imkx3qrKo5mvGBN7-12" value="Agendamento" style="rounded=0;whiteSpace=wrap;html=1;hachureGap=4;fontFamily=Verdana;sketch=1;curveFitting=1;jiggle=2;fillColor=#e1d5e7;strokeColor=#9673a6;fontColor=#FFFFFF;fontStyle=1;fontSize=22;" vertex="1" parent="1">
          <mxGeometry x="150" y="-297" width="244" height="127" as="geometry" />
        </mxCell>
        <mxCell id="RgA5Imkx3qrKo5mvGBN7-13" value="CriarAgendamento" style="rounded=0;whiteSpace=wrap;html=1;hachureGap=4;fontFamily=Verdana;sketch=1;curveFitting=1;jiggle=2;fillColor=#e1d5e7;strokeColor=#9673a6;fontColor=#FFFFFF;fontStyle=1;fontSize=22;" vertex="1" parent="1">
          <mxGeometry x="485" y="-348" width="244" height="127" as="geometry" />
        </mxCell>
        <mxCell id="RgA5Imkx3qrKo5mvGBN7-14" value="AtualizarAgendamento" style="rounded=0;whiteSpace=wrap;html=1;hachureGap=4;fontFamily=Verdana;sketch=1;curveFitting=1;jiggle=2;fillColor=#e1d5e7;strokeColor=#9673a6;fontColor=#FFFFFF;fontStyle=1;fontSize=22;" vertex="1" parent="1">
          <mxGeometry x="251" y="-75" width="335" height="139" as="geometry" />
        </mxCell>
        <mxCell id="Ns6PyetZf498ZepUySWi-1" value="" style="edgeStyle=none;curved=1;rounded=0;sketch=1;hachureGap=4;jiggle=2;curveFitting=1;orthogonalLoop=1;jettySize=auto;html=1;fontFamily=Architects Daughter;fontSource=https%3A%2F%2Ffonts.googleapis.com%2Fcss%3Ffamily%3DArchitects%2BDaughter;fontSize=16;startSize=14;endArrow=open;endSize=14;sourcePerimeterSpacing=8;targetPerimeterSpacing=8;" edge="1" parent="1" source="Ns6PyetZf498ZepUySWi-5" target="Ns6PyetZf498ZepUySWi-6">
          <mxGeometry relative="1" as="geometry" />
        </mxCell>
        <mxCell id="Ns6PyetZf498ZepUySWi-2" value="" style="edgeStyle=none;curved=1;rounded=0;sketch=1;hachureGap=4;jiggle=2;curveFitting=1;orthogonalLoop=1;jettySize=auto;html=1;fontFamily=Architects Daughter;fontSource=https%3A%2F%2Ffonts.googleapis.com%2Fcss%3Ffamily%3DArchitects%2BDaughter;fontSize=16;startSize=14;endArrow=open;endSize=14;sourcePerimeterSpacing=8;targetPerimeterSpacing=8;" edge="1" parent="1" source="Ns6PyetZf498ZepUySWi-5" target="Ns6PyetZf498ZepUySWi-6">
          <mxGeometry relative="1" as="geometry" />
        </mxCell>
        <mxCell id="Ns6PyetZf498ZepUySWi-3" value="" style="edgeStyle=none;curved=1;rounded=0;sketch=1;hachureGap=4;jiggle=2;curveFitting=1;orthogonalLoop=1;jettySize=auto;html=1;fontFamily=Architects Daughter;fontSource=https%3A%2F%2Ffonts.googleapis.com%2Fcss%3Ffamily%3DArchitects%2BDaughter;fontSize=16;startSize=14;endArrow=open;endSize=14;sourcePerimeterSpacing=8;targetPerimeterSpacing=8;" edge="1" parent="1" source="Ns6PyetZf498ZepUySWi-5" target="Ns6PyetZf498ZepUySWi-6">
          <mxGeometry relative="1" as="geometry" />
        </mxCell>
        <mxCell id="Ns6PyetZf498ZepUySWi-4" style="edgeStyle=none;curved=1;rounded=0;sketch=1;hachureGap=4;jiggle=2;curveFitting=1;orthogonalLoop=1;jettySize=auto;html=1;fontFamily=Architects Daughter;fontSource=https%3A%2F%2Ffonts.googleapis.com%2Fcss%3Ffamily%3DArchitects%2BDaughter;fontSize=16;startSize=14;endArrow=open;endSize=14;sourcePerimeterSpacing=8;targetPerimeterSpacing=8;entryX=0.372;entryY=-0.02;entryDx=0;entryDy=0;entryPerimeter=0;" edge="1" parent="1" source="Ns6PyetZf498ZepUySWi-5" target="Ns6PyetZf498ZepUySWi-7">
          <mxGeometry relative="1" as="geometry">
            <mxPoint x="-660" y="424.66666666666674" as="targetPoint" />
          </mxGeometry>
        </mxCell>
        <mxCell id="Ns6PyetZf498ZepUySWi-5" value="Cliente" style="rounded=0;whiteSpace=wrap;html=1;hachureGap=4;fontFamily=Verdana;sketch=1;curveFitting=1;jiggle=2;fillColor=#e1d5e7;strokeColor=#9673a6;fontColor=#FFFFFF;fontStyle=1;fontSize=22;" vertex="1" parent="1">
          <mxGeometry x="-782" y="-40" width="244" height="127" as="geometry" />
        </mxCell>
        <mxCell id="Ns6PyetZf498ZepUySWi-6" value="CriarCadastro" style="rounded=0;whiteSpace=wrap;html=1;hachureGap=4;fontFamily=Verdana;sketch=1;curveFitting=1;jiggle=2;fillColor=#e1d5e7;strokeColor=#9673a6;fontColor=#FFFFFF;fontStyle=1;fontSize=22;" vertex="1" parent="1">
          <mxGeometry x="-447" y="-91" width="244" height="127" as="geometry" />
        </mxCell>
        <mxCell id="Ns6PyetZf498ZepUySWi-7" value="AtualizarCadastro" style="rounded=0;whiteSpace=wrap;html=1;hachureGap=4;fontFamily=Verdana;sketch=1;curveFitting=1;jiggle=2;fillColor=#e1d5e7;strokeColor=#9673a6;fontColor=#FFFFFF;fontStyle=1;fontSize=22;" vertex="1" parent="1">
          <mxGeometry x="-681" y="182" width="335" height="139" as="geometry" />
        </mxCell>
        <mxCell id="bnTnBnJD_OC0jbEWEdFl-1" value="" style="edgeStyle=none;curved=1;rounded=0;sketch=1;hachureGap=4;jiggle=2;curveFitting=1;orthogonalLoop=1;jettySize=auto;html=1;fontFamily=Architects Daughter;fontSource=https%3A%2F%2Ffonts.googleapis.com%2Fcss%3Ffamily%3DArchitects%2BDaughter;fontSize=16;startSize=14;endArrow=open;endSize=14;sourcePerimeterSpacing=8;targetPerimeterSpacing=8;" edge="1" parent="1" source="bnTnBnJD_OC0jbEWEdFl-5" target="bnTnBnJD_OC0jbEWEdFl-6">
          <mxGeometry relative="1" as="geometry" />
        </mxCell>
        <mxCell id="bnTnBnJD_OC0jbEWEdFl-2" value="" style="edgeStyle=none;curved=1;rounded=0;sketch=1;hachureGap=4;jiggle=2;curveFitting=1;orthogonalLoop=1;jettySize=auto;html=1;fontFamily=Architects Daughter;fontSource=https%3A%2F%2Ffonts.googleapis.com%2Fcss%3Ffamily%3DArchitects%2BDaughter;fontSize=16;startSize=14;endArrow=open;endSize=14;sourcePerimeterSpacing=8;targetPerimeterSpacing=8;" edge="1" parent="1" source="bnTnBnJD_OC0jbEWEdFl-5" target="bnTnBnJD_OC0jbEWEdFl-6">
          <mxGeometry relative="1" as="geometry" />
        </mxCell>
        <mxCell id="bnTnBnJD_OC0jbEWEdFl-3" value="" style="edgeStyle=none;curved=1;rounded=0;sketch=1;hachureGap=4;jiggle=2;curveFitting=1;orthogonalLoop=1;jettySize=auto;html=1;fontFamily=Architects Daughter;fontSource=https%3A%2F%2Ffonts.googleapis.com%2Fcss%3Ffamily%3DArchitects%2BDaughter;fontSize=16;startSize=14;endArrow=open;endSize=14;sourcePerimeterSpacing=8;targetPerimeterSpacing=8;" edge="1" parent="1" source="bnTnBnJD_OC0jbEWEdFl-5" target="bnTnBnJD_OC0jbEWEdFl-6">
          <mxGeometry relative="1" as="geometry" />
        </mxCell>
        <mxCell id="bnTnBnJD_OC0jbEWEdFl-5" value="Ingresso" style="rounded=0;whiteSpace=wrap;html=1;hachureGap=4;fontFamily=Verdana;sketch=1;curveFitting=1;jiggle=2;fillColor=#e1d5e7;strokeColor=#9673a6;fontColor=#FFFFFF;fontStyle=1;fontSize=22;" vertex="1" parent="1">
          <mxGeometry x="1054" y="218" width="244" height="127" as="geometry" />
        </mxCell>
        <mxCell id="bnTnBnJD_OC0jbEWEdFl-6" value="CriarIngresso" style="rounded=0;whiteSpace=wrap;html=1;hachureGap=4;fontFamily=Verdana;sketch=1;curveFitting=1;jiggle=2;fillColor=#e1d5e7;strokeColor=#9673a6;fontColor=#FFFFFF;fontStyle=1;fontSize=22;" vertex="1" parent="1">
          <mxGeometry x="1387" y="218" width="244" height="127" as="geometry" />
        </mxCell>
      </root>
    </mxGraphModel>
  </diagram>
  <diagram id="2mnEkam1YsxgOpbonI_A" name="Página-3">
    <mxGraphModel dx="1488" dy="794" grid="0" gridSize="10" guides="1" tooltips="1" connect="1" arrows="1" fold="1" page="1" pageScale="1" pageWidth="850" pageHeight="1100" math="0" shadow="0">
      <root>
        <mxCell id="0" />
        <mxCell id="1" parent="0" />
      </root>
    </mxGraphModel>
  </diagram>
</mxfile>
